<svg width="80" height="29" viewBox="0 0 80 29" fill="none" xmlns="http://www.w3.org/2000/svg">
<path d="M36.9891 9.40496V14.4516H36.7884C35.9855 13.9068 35.0106 13.5913 33.8637 13.5913C30.7095 13.5913 29.2759 15.5412 29.2759 19.6702V27.6415H24.1146V9.08954H28.4156L28.645 11.9856H28.7311C29.7633 9.80639 31.5698 8.71678 34.2651 8.71678C35.4407 8.68811 36.4443 8.97485 36.9891 9.40496Z" fill="white"/>
<path d="M58.2655 18.3513C58.2655 23.9714 54.4232 28.0431 49.1758 28.0431C46.4518 28.0431 44.33 26.9821 43.1257 25.2043H43.0396L42.8389 27.6416H38.5378V0H43.6991V10.6954H43.7852C45.0468 9.40503 46.8533 8.68818 49.1472 8.68818C54.4518 8.68818 58.2655 12.7599 58.2655 18.3513ZM53.0468 18.3513C53.0468 15.3405 51.1543 13.2473 48.3156 13.2473C45.5056 13.2473 43.6131 15.3405 43.6131 18.3513C43.6131 21.362 45.5056 23.4552 48.3156 23.4552C51.1543 23.4552 53.0468 21.362 53.0468 18.3513Z" fill="white"/>
<path d="M65.577 5.04658C65.577 6.93905 64.2293 8.25805 62.3655 8.25805C60.5017 8.25805 59.1541 6.96773 59.1541 5.04658C59.1541 3.18278 60.5017 1.89246 62.3655 1.89246C64.2293 1.89246 65.577 3.18278 65.577 5.04658ZM59.7849 9.08959H64.9462V27.6416H59.7849V9.08959Z" fill="white"/>
<path d="M80 27.4121C79.0824 27.8423 77.9355 28.043 76.3584 28.043C71.8566 28.043 69.448 25.6057 69.448 20.9032V13.4767H66.3799V9.08955H69.5914L70.2509 3.87091H74.6093V9.08955H79.9426V13.4767H74.6093V20.7025C74.6093 22.4802 75.5555 23.4552 77.1899 23.4552C78.1362 23.4552 78.9964 23.2258 79.7993 22.3942H80V27.4121Z" fill="white"/>
<path d="M12.0432 28.674C7.77079 28.674 3.95716 26.122 2.35142 22.1363C2.23673 21.8496 2.3801 21.5055 2.66684 21.3908C2.95357 21.2761 3.29766 21.4195 3.41236 21.7062C4.84605 25.2331 8.22957 27.527 12.0432 27.527C12.8174 27.527 13.5916 27.441 14.3371 27.2403C14.6525 27.1542 14.9679 27.355 15.0253 27.6704C15.0826 27.9858 14.9106 28.3012 14.5952 28.3585C13.7636 28.5879 12.9034 28.674 12.0432 28.674Z" fill="#146FF8"/>
<path d="M20.1863 24.4302C20.0716 24.4302 19.9569 24.4015 19.8709 24.3155C19.6129 24.1434 19.5555 23.7707 19.7276 23.5126C20.8172 21.9642 21.3906 20.1291 21.3906 18.208C21.3906 16.2868 20.8172 14.4517 19.7276 12.9033C19.5555 12.6452 19.6129 12.2725 19.8709 12.1004C20.129 11.9284 20.5017 11.9857 20.6738 12.2438C21.9068 13.9929 22.5376 16.0574 22.5376 18.208C22.5376 20.3585 21.9068 22.423 20.6738 24.1721C20.5304 24.3442 20.3584 24.4302 20.1863 24.4302Z" fill="#146FF8"/>
<path d="M3.01092 14.1076C2.92489 14.1076 2.83887 14.079 2.75285 14.0503C2.46611 13.9069 2.35142 13.5628 2.52346 13.2761C4.24389 9.97859 7.62741 7.82805 11.355 7.65601C12.588 7.59866 13.7923 7.7707 14.9392 8.11479C15.2547 8.20081 15.398 8.5449 15.312 8.83164C15.226 9.14705 14.8819 9.29042 14.5952 9.2044C13.5629 8.88898 12.4733 8.74562 11.3837 8.77429C8.08619 8.94633 5.07543 10.8675 3.52705 13.8209C3.44102 13.9929 3.24031 14.1076 3.01092 14.1076Z" fill="#146FF8"/>
<path d="M12.1865 22.0789C14.261 22.0789 15.9428 20.3972 15.9428 18.3226C15.9428 16.2481 14.261 14.5663 12.1865 14.5663C10.112 14.5663 8.43024 16.2481 8.43024 18.3226C8.43024 20.3972 10.112 22.0789 12.1865 22.0789Z" fill="#146FF8"/>
<path d="M2.5233 20.3584C3.91688 20.3584 5.0466 19.2287 5.0466 17.8351C5.0466 16.4415 3.91688 15.3118 2.5233 15.3118C1.12972 15.3118 0 16.4415 0 17.8351C0 19.2287 1.12972 20.3584 2.5233 20.3584Z" fill="#146FF8"/>
<path d="M17.5771 11.4408C18.2422 11.4408 18.7814 10.9016 18.7814 10.2365C18.7814 9.57138 18.2422 9.0322 17.5771 9.0322C16.912 9.0322 16.3728 9.57138 16.3728 10.2365C16.3728 10.9016 16.912 11.4408 17.5771 11.4408Z" fill="#146FF8"/>
<path d="M17.7203 28.3871C18.7813 28.3871 19.6414 27.5269 19.6414 26.4659C19.6414 25.4049 18.7813 24.5448 17.7203 24.5448C16.6593 24.5448 15.7991 25.4049 15.7991 26.4659C15.7991 27.5269 16.6593 28.3871 17.7203 28.3871Z" fill="#146FF8"/>
</svg>
